<svg width="140" height="399" viewBox="0 0 140 399" fill="none" xmlns="http://www.w3.org/2000/svg">
<path d="M72 4L74.5 2.5L75.5 2H78.5H81.5L83.5 4L85 6.5L87 9.5L89 12L90.5 14L92 15.5V27.5L93.5 29.5L96 33V38L94.5 41L92 44.5L90.5 47L89 48.5V50.5L90.5 52L93.5 54L89.5 57.5L87 58.5H77.5V62L78.5 64.5L81.5 69L85 71L89.5 74.5L96 78L103 82L105.5 88.5L108.5 99L112 111L114.5 122.5V126L115.5 133L116.5 142V147L123 162L125 172.5L127 180.5L128.5 187L131 194L133 200L138.5 213L137.5 217.5L136.5 222L133 226.5L134 222V214.5L132 213L131 219.5L128.5 222V212L131 204L129.5 198L121.5 182.5L109.5 156.5L96 103V114V117L94.5 118.5L93 122.5L92 128L89.5 137C89.5 139.667 89.5 145.2 89.5 146C89.5 146.8 89.5 150 89.5 151.5L91 159L92 165.5L94.5 174.5L98 182.5V187L99.5 194V204V214.5L98 232.5L96 245.5V253L94.5 264V277L96 285.5V293V299L94.5 307.5V315L93.5 324L91.5 340.5L96 347.5L108 358.5L109.5 360.5L105.5 362.5H93.5L83 354L84.5 340.5V331L80 295.5L78.5 285.5L80 268.5L78.5 264L77 245.5L74 222L70.5 204L69.5 202H67.5L67 213.5L65.5 226L62 244V253V259.5V266.5L60.5 270V280.5V293L59.5 300.5L57 315V326L54 334.5L55.5 353V355L47 361.5H31L30 359.5L47 341.5L48 336.5L47 326L46 317V309.5L45 300.5L43.5 288V277L46 266.5V253L41 228.5V207V196.5V188.5L43 178.5L46 169.5L48 159L49.5 150V137V130.5L46 118.5L44.5 111V103L37.5 128L35.5 137L33.5 142L32 151.5L30.5 159L9.5 202L11 207V209V219.5L9.5 220.5L8.5 213.5H6L6.5 221L8.5 226.5L7.5 228.5L1 214.5L7.5 196.5L13 179.5V173.5L15.5 165.5L19.5 153.5L22.5 147L24.5 142L22.5 137L24.5 126L35.5 82L56.5 70L60 67L63 58.5H59L54.5 57.5L48 55.5L47 54L51.5 52L52.5 48.5L46 39V34L49.5 27.5L50 24L48 20.5L50.5 16L57.5 6L61.5 2L62.5 1H65.5H67.5L72 4.5" stroke="black"/>
<rect x="1" y="369" width="137" height="30" fill="#D9D9D9"/>
<path d="M51.4148 389H50.3068L53.5114 380.273H54.6023L57.8068 389H56.6989L54.0909 381.653H54.0227L51.4148 389ZM51.8239 385.591H56.2898V386.528H51.8239V385.591ZM59.1662 389V380.273H60.1719V383.494H60.2571C60.331 383.381 60.4332 383.236 60.5639 383.06C60.6974 382.881 60.8878 382.722 61.1349 382.582C61.3849 382.44 61.723 382.369 62.1491 382.369C62.7003 382.369 63.1861 382.507 63.6065 382.783C64.027 383.058 64.3551 383.449 64.5909 383.955C64.8267 384.46 64.9446 385.057 64.9446 385.744C64.9446 386.438 64.8267 387.038 64.5909 387.547C64.3551 388.053 64.0284 388.445 63.6108 388.723C63.1932 388.999 62.7116 389.136 62.1662 389.136C61.7457 389.136 61.4091 389.067 61.1562 388.928C60.9034 388.786 60.7088 388.625 60.5724 388.446C60.4361 388.264 60.331 388.114 60.2571 387.994H60.1378V389H59.1662ZM60.1548 385.727C60.1548 386.222 60.2273 386.658 60.3722 387.036C60.517 387.411 60.7287 387.705 61.0071 387.918C61.2855 388.128 61.6264 388.233 62.0298 388.233C62.4503 388.233 62.8011 388.122 63.0824 387.901C63.3665 387.676 63.5795 387.375 63.7216 386.997C63.8665 386.616 63.9389 386.193 63.9389 385.727C63.9389 385.267 63.8679 384.852 63.7259 384.483C63.5866 384.111 63.375 383.817 63.0909 383.601C62.8097 383.382 62.456 383.273 62.0298 383.273C61.6207 383.273 61.277 383.376 60.9986 383.584C60.7202 383.788 60.5099 384.075 60.3679 384.445C60.2259 384.811 60.1548 385.239 60.1548 385.727ZM68.4091 389.153C67.9943 389.153 67.6179 389.075 67.2798 388.919C66.9418 388.76 66.6733 388.531 66.4744 388.233C66.2756 387.932 66.1761 387.568 66.1761 387.142C66.1761 386.767 66.25 386.463 66.3977 386.23C66.5455 385.994 66.7429 385.81 66.9901 385.676C67.2372 385.543 67.5099 385.443 67.8082 385.378C68.1094 385.31 68.4119 385.256 68.7159 385.216C69.1136 385.165 69.4361 385.126 69.6832 385.101C69.9332 385.072 70.1151 385.026 70.2287 384.96C70.3452 384.895 70.4034 384.781 70.4034 384.619V384.585C70.4034 384.165 70.2884 383.838 70.0582 383.605C69.831 383.372 69.4858 383.256 69.0227 383.256C68.5426 383.256 68.1662 383.361 67.8935 383.571C67.6207 383.781 67.429 384.006 67.3182 384.244L66.3636 383.903C66.5341 383.506 66.7614 383.196 67.0455 382.974C67.3324 382.75 67.6449 382.594 67.983 382.506C68.3239 382.415 68.6591 382.369 68.9886 382.369C69.1989 382.369 69.4403 382.395 69.7131 382.446C69.9886 382.494 70.2543 382.595 70.5099 382.749C70.7685 382.902 70.983 383.134 71.1534 383.443C71.3239 383.753 71.4091 384.168 71.4091 384.688V389H70.4034V388.114H70.3523C70.2841 388.256 70.1705 388.408 70.0114 388.57C69.8523 388.732 69.6406 388.869 69.3764 388.983C69.1122 389.097 68.7898 389.153 68.4091 389.153ZM68.5625 388.25C68.9602 388.25 69.2955 388.172 69.5682 388.016C69.8438 387.859 70.0511 387.658 70.1903 387.411C70.3324 387.163 70.4034 386.903 70.4034 386.631V385.71C70.3608 385.761 70.267 385.808 70.1222 385.851C69.9801 385.891 69.8153 385.926 69.6278 385.957C69.4432 385.986 69.2628 386.011 69.0866 386.034C68.9134 386.054 68.7727 386.071 68.6648 386.085C68.4034 386.119 68.1591 386.175 67.9318 386.251C67.7074 386.325 67.5256 386.437 67.3864 386.588C67.25 386.736 67.1818 386.937 67.1818 387.193C67.1818 387.543 67.3111 387.807 67.5696 387.986C67.831 388.162 68.1619 388.25 68.5625 388.25ZM73.2447 389V382.455H74.2504V389H73.2447ZM73.756 381.364C73.56 381.364 73.391 381.297 73.2489 381.163C73.1097 381.03 73.0401 380.869 73.0401 380.682C73.0401 380.494 73.1097 380.334 73.2489 380.2C73.391 380.067 73.56 380 73.756 380C73.9521 380 74.1197 380.067 74.2589 380.2C74.4009 380.334 74.4719 380.494 74.4719 380.682C74.4719 380.869 74.4009 381.03 74.2589 381.163C74.1197 381.297 73.9521 381.364 73.756 381.364ZM76.8423 382.455L78.4105 385.131L79.9787 382.455H81.1378L79.0241 385.727L81.1378 389H79.9787L78.4105 386.46L76.8423 389H75.6832L77.7628 385.727L75.6832 382.455H76.8423ZM84.9624 389.136C84.3714 389.136 83.853 388.996 83.407 388.714C82.9638 388.433 82.6172 388.04 82.3672 387.534C82.12 387.028 81.9964 386.437 81.9964 385.761C81.9964 385.08 82.12 384.484 82.3672 383.976C82.6172 383.467 82.9638 383.072 83.407 382.791C83.853 382.51 84.3714 382.369 84.9624 382.369C85.5533 382.369 86.0703 382.51 86.5135 382.791C86.9595 383.072 87.3061 383.467 87.5533 383.976C87.8033 384.484 87.9283 385.08 87.9283 385.761C87.9283 386.437 87.8033 387.028 87.5533 387.534C87.3061 388.04 86.9595 388.433 86.5135 388.714C86.0703 388.996 85.5533 389.136 84.9624 389.136ZM84.9624 388.233C85.4112 388.233 85.7805 388.118 86.0703 387.888C86.3601 387.658 86.5746 387.355 86.7138 386.98C86.853 386.605 86.9226 386.199 86.9226 385.761C86.9226 385.324 86.853 384.916 86.7138 384.538C86.5746 384.161 86.3601 383.855 86.0703 383.622C85.7805 383.389 85.4112 383.273 84.9624 383.273C84.5135 383.273 84.1442 383.389 83.8544 383.622C83.5646 383.855 83.3501 384.161 83.2109 384.538C83.0717 384.916 83.0021 385.324 83.0021 385.761C83.0021 386.199 83.0717 386.605 83.2109 386.98C83.3501 387.355 83.5646 387.658 83.8544 387.888C84.1442 388.118 84.5135 388.233 84.9624 388.233Z" fill="black"/>
</svg>
