<svg width="142" height="399" viewBox="0 0 142 399" fill="none" xmlns="http://www.w3.org/2000/svg">
<path d="M26 95.5L19.5 134.5V139L18 141.5L15.5 147.5L13.5 154.5L11.5 163.5L10 176L8 187.5L5.5 193.5L1.5 206L1 215.5L6.5 227L9 228L8 226L5.5 218L6.5 209H8L10 218H11.5V196.5L27 164L30 154.5L32.5 145.5L33.5 139L36 129.5L40 105.5L42 116.5L47.5 137V154.5L41 171L36 183.5L33.5 193.5L42 246.5L43.5 255.5V267V273L42 277V281V287.5V299.5L46.5 334L47.5 338.5V340.5L46.5 342.5L39 352.5L31 359L32.5 361.5L36 362H45.5L50 360.5L54 357.5L57.5 354L56.5 347V339.5V335L60 317.5L63 303.5L64.5 287.5L63 278V271.5V265.5L64.5 252L66 240.5L67.5 229L69 221.5L69.5 210.5V202H73.5V206.5V218L74 224.5L75 235L77.5 249L78.5 253.5V264.5L80 267V271.5L78.5 274.5L77.5 284.5L78.5 297.5L84 327L86.5 333V338.5L85.5 344.5V351V354L87.5 357.5L92.5 360.5L96 361.5L102 362L108 361.5L111 360.5V359L109.5 357.5L105.5 354L100.5 350L96 342.5L95 339.5V334L96 331.5L97.5 322.5L99.5 303.5L100.5 291.5L99.5 279.5V271.5L97.5 264.5L99.5 259.5V254.5L100.5 249V244L102 236.5L103.5 227L106 221L107 215.5V205.5L108.5 195.5L106 185.5L103.5 176L97.5 163.5L93.5 151V141.5L95.5 129.5L103.5 105.5V116.5L108.5 140L113.5 157.5L127 187.5L131 195.5V199L130 206.5L131 219L132.5 215.5V210.5L135 209L136.5 210.5V219L135 221L133.5 223.5V228L135 227L141 217.5V212V206.5L139 199L135 190L133.5 183.5L131 169L127 151L123 139V137L119.5 109L114.5 89.5L109.5 80.5L89.5 71.5L84.5 68L81.5 63.5V58.5L91.5 57L94.5 54L91.5 50.5V47L97.5 38.5V36L93.5 25V20.5L94.5 17.5L82.5 2.5H78L73 4L67 1L61 2.5L49.5 19.5L51 27L47 38.5L52.5 49L49.5 54L63.5 59.5L59.5 68L52.5 71.5L40 76L33 80.5L26 95.5Z" stroke="black"/>
<rect x="1" y="369" width="140" height="30" fill="#D9D9D9"/>
<path d="M58.9773 380.273V389H57.9545L53.1989 382.148H53.1136V389H52.0568V380.273H53.0795L57.8523 387.142H57.9375V380.273H58.9773ZM63.6147 389.136C63.0238 389.136 62.5053 388.996 62.0593 388.714C61.6161 388.433 61.2695 388.04 61.0195 387.534C60.7724 387.028 60.6488 386.437 60.6488 385.761C60.6488 385.08 60.7724 384.484 61.0195 383.976C61.2695 383.467 61.6161 383.072 62.0593 382.791C62.5053 382.51 63.0238 382.369 63.6147 382.369C64.2056 382.369 64.7227 382.51 65.1658 382.791C65.6119 383.072 65.9585 383.467 66.2056 383.976C66.4556 384.484 66.5806 385.08 66.5806 385.761C66.5806 386.437 66.4556 387.028 66.2056 387.534C65.9585 388.04 65.6119 388.433 65.1658 388.714C64.7227 388.996 64.2056 389.136 63.6147 389.136ZM63.6147 388.233C64.0636 388.233 64.4329 388.118 64.7227 387.888C65.0124 387.658 65.2269 387.355 65.3661 386.98C65.5053 386.605 65.5749 386.199 65.5749 385.761C65.5749 385.324 65.5053 384.916 65.3661 384.538C65.2269 384.161 65.0124 383.855 64.7227 383.622C64.4329 383.389 64.0636 383.273 63.6147 383.273C63.1658 383.273 62.7965 383.389 62.5067 383.622C62.217 383.855 62.0025 384.161 61.8633 384.538C61.7241 384.916 61.6545 385.324 61.6545 385.761C61.6545 386.199 61.7241 386.605 61.8633 386.98C62.0025 387.355 62.217 387.658 62.5067 387.888C62.7965 388.118 63.1658 388.233 63.6147 388.233ZM68.1158 389V382.455H69.0874V383.443H69.1555C69.2749 383.119 69.4908 382.857 69.8033 382.655C70.1158 382.453 70.468 382.352 70.8601 382.352C70.9339 382.352 71.0263 382.354 71.1371 382.357C71.2479 382.359 71.3317 382.364 71.3885 382.369V383.392C71.3544 383.384 71.2763 383.371 71.1541 383.354C71.0348 383.334 70.9084 383.324 70.7749 383.324C70.4567 383.324 70.1726 383.391 69.9226 383.524C69.6754 383.655 69.4794 383.837 69.3345 384.07C69.1925 384.3 69.1214 384.562 69.1214 384.858V389H68.1158ZM72.5806 389V382.455H73.5522V383.477H73.6374C73.7738 383.128 73.994 382.857 74.2979 382.663C74.6019 382.467 74.967 382.369 75.3931 382.369C75.8249 382.369 76.1843 382.467 76.4712 382.663C76.761 382.857 76.9869 383.128 77.1488 383.477H77.217C77.3846 383.139 77.636 382.871 77.9712 382.672C78.3065 382.47 78.7085 382.369 79.1772 382.369C79.7624 382.369 80.2411 382.553 80.6133 382.919C80.9854 383.283 81.1715 383.849 81.1715 384.619V389H80.1658V384.619C80.1658 384.136 80.0337 383.791 79.7695 383.584C79.5053 383.376 79.1942 383.273 78.8363 383.273C78.3761 383.273 78.0195 383.412 77.7667 383.69C77.5138 383.966 77.3874 384.315 77.3874 384.739V389H76.3647V384.517C76.3647 384.145 76.244 383.845 76.0025 383.618C75.761 383.388 75.4499 383.273 75.0692 383.273C74.8079 383.273 74.5636 383.342 74.3363 383.482C74.1119 383.621 73.93 383.814 73.7908 384.061C73.6545 384.305 73.5863 384.588 73.5863 384.909V389H72.5806ZM84.9364 389.153C84.5217 389.153 84.1452 389.075 83.8072 388.919C83.4691 388.76 83.2006 388.531 83.0018 388.233C82.8029 387.932 82.7035 387.568 82.7035 387.142C82.7035 386.767 82.7773 386.463 82.9251 386.23C83.0728 385.994 83.2702 385.81 83.5174 385.676C83.7646 385.543 84.0373 385.443 84.3356 385.378C84.6367 385.31 84.9393 385.256 85.2433 385.216C85.641 385.165 85.9634 385.126 86.2106 385.101C86.4606 385.072 86.6424 385.026 86.756 384.96C86.8725 384.895 86.9308 384.781 86.9308 384.619V384.585C86.9308 384.165 86.8157 383.838 86.5856 383.605C86.3583 383.372 86.0131 383.256 85.5501 383.256C85.07 383.256 84.6935 383.361 84.4208 383.571C84.1481 383.781 83.9563 384.006 83.8455 384.244L82.891 383.903C83.0614 383.506 83.2887 383.196 83.5728 382.974C83.8597 382.75 84.1722 382.594 84.5103 382.506C84.8512 382.415 85.1864 382.369 85.516 382.369C85.7262 382.369 85.9677 382.395 86.2404 382.446C86.516 382.494 86.7816 382.595 87.0373 382.749C87.2958 382.902 87.5103 383.134 87.6808 383.443C87.8512 383.753 87.9364 384.168 87.9364 384.688V389H86.9308V388.114H86.8796C86.8114 388.256 86.6978 388.408 86.5387 388.57C86.3796 388.732 86.168 388.869 85.9038 388.983C85.6396 389.097 85.3171 389.153 84.9364 389.153ZM85.0898 388.25C85.4876 388.25 85.8228 388.172 86.0955 388.016C86.3711 387.859 86.5785 387.658 86.7177 387.411C86.8597 387.163 86.9308 386.903 86.9308 386.631V385.71C86.8881 385.761 86.7944 385.808 86.6495 385.851C86.5075 385.891 86.3427 385.926 86.1552 385.957C85.9705 385.986 85.7901 386.011 85.614 386.034C85.4407 386.054 85.3001 386.071 85.1921 386.085C84.9308 386.119 84.6864 386.175 84.4592 386.251C84.2347 386.325 84.0529 386.437 83.9137 386.588C83.7773 386.736 83.7092 386.937 83.7092 387.193C83.7092 387.543 83.8384 387.807 84.0969 387.986C84.3583 388.162 84.6893 388.25 85.0898 388.25ZM90.7777 380.273V389H89.772V380.273H90.7777Z" fill="black"/>
</svg>
