<svg width="167" height="399" viewBox="0 0 167 399" fill="none" xmlns="http://www.w3.org/2000/svg">
<path d="M63 13.5L58.5 18V23H59.5L60.5 24.5L59.5 28L58 30.5L56.5 33.5L55.5 35.5V40L62 47.5L62.5 49.5L62 51L61.5 51.5L60.5 52.5L57.5 54.5L68.5 58.5L69 59V60L68 61L66 62.5L61 64.5L51.5 68L40 73L32 77L28.5 79L23 83.5L20.5 87.5L17.5 93.5L15 100L14 103.5V107.5V123.5L15 127.5L16 136.5L15 138.5L12 145.5L10.5 149L9.5 151V155L8 158L7 161.5V182.5V191.5L6.5 195L4 199L2 205L1 207.5V211L9.5 227H12V225L9.5 222V214V207.5H12L13.5 211L15 217.5L17.5 219L19 217.5L17.5 212.5V209V203.5V196.5L23 182.5L37.5 156.5V160.5L32 170.5L30.5 189.5L28.5 199L30.5 216.5L32 226L34.5 237L37.5 251L39 258V265L40.5 288L42 291.5L42.5 299L46 311.5L52.5 334L54 337V341.5L52.5 343L51 346L45 352L40.5 355.5L36 357L34 359.5L37.5 362H55L61 360.5L64.5 359.5L67 357L69.5 354.5V350.5V345.5V341.5V337L70.5 335L71.5 331L72.5 328.5L74 323.5L75.5 318.5L77.5 314.5L79 310L81 303L81.5 300.5V297.5V293.5V286.5L81 282L80 277V273.5V271L81 268L81.5 263V257.5L81 252.5L81.5 248V245.5L83 245L84 248L85.5 251V256L83.5 259V263L86.5 273.5L84 283V286V300.5L85.5 304L89.5 314.5L95 331L96.5 339.5L97 344.5V348V350.5L96 352L96.5 355.5L105.5 362H107.5H124H128.5L131.5 360.5L132.5 359.5L132 358L126.5 355.5L124 353.5L118.5 349L115 345.5L112.5 341.5V338L114 334L115 329L117 323.5L118.5 317L119.5 313.5L120.5 309.5L121.5 307L123 297.5L124.5 288L125.5 279L126.5 267.5L127.5 258L129 252.5L130.5 242.5L133.5 230.5L135 222L136 216.5V209V199V192L133.5 175.5L130.5 164.5L128.5 158H129.5L149 196.5V199L148 203.5V206L149 212.5L148 215.5L147 219H150L151 217.5L152 214L153 209L155 207.5L157 209V212.5V217.5V222L154 225L155 227L158 224L161.5 219L164.5 212.5L165.5 207.5L164.5 203.5L160 196.5L158 192V176.5V170.5V164.5V160.5L157 156.5L155 148L152 142L150 137.5L151 134.5V130.5V126.5L152 123.5V115V105L151 101.5L146.5 91.5L142 83.5L137 79L131 75.5L118.5 70L111.5 68L106.5 66.5L103 64.5L100 62.5V59.5L104 58L110.5 54.5V52.5H108.5L105.5 50.5V47.5L110.5 41L113 37.5L110.5 31L108.5 25.5V21.5V16L104 11L95.5 3H87.5L85 5L80 1H75.5L71.5 3L66.5 8.5L63 13.5Z" stroke="black"/>
<rect x="1" y="366" width="165" height="33" fill="#D9D9D9"/>
<path d="M55.4205 382.636C55.4205 383.557 55.2543 384.352 54.9219 385.023C54.5895 385.693 54.1335 386.21 53.554 386.574C52.9744 386.938 52.3125 387.119 51.5682 387.119C50.8239 387.119 50.1619 386.938 49.5824 386.574C49.0028 386.21 48.5469 385.693 48.2145 385.023C47.8821 384.352 47.7159 383.557 47.7159 382.636C47.7159 381.716 47.8821 380.92 48.2145 380.25C48.5469 379.58 49.0028 379.062 49.5824 378.699C50.1619 378.335 50.8239 378.153 51.5682 378.153C52.3125 378.153 52.9744 378.335 53.554 378.699C54.1335 379.062 54.5895 379.58 54.9219 380.25C55.2543 380.92 55.4205 381.716 55.4205 382.636ZM54.3977 382.636C54.3977 381.881 54.2713 381.243 54.0185 380.723C53.7685 380.203 53.429 379.81 53 379.543C52.5739 379.276 52.0966 379.142 51.5682 379.142C51.0398 379.142 50.5611 379.276 50.1321 379.543C49.706 379.81 49.3665 380.203 49.1136 380.723C48.8636 381.243 48.7386 381.881 48.7386 382.636C48.7386 383.392 48.8636 384.03 49.1136 384.55C49.3665 385.07 49.706 385.463 50.1321 385.73C50.5611 385.997 51.0398 386.131 51.5682 386.131C52.0966 386.131 52.5739 385.997 53 385.73C53.429 385.463 53.7685 385.07 54.0185 384.55C54.2713 384.03 54.3977 383.392 54.3977 382.636ZM57.1974 387V378.273H58.2031V381.494H58.2884C58.3622 381.381 58.4645 381.236 58.5952 381.06C58.7287 380.881 58.919 380.722 59.1662 380.582C59.4162 380.44 59.7543 380.369 60.1804 380.369C60.7315 380.369 61.2173 380.507 61.6378 380.783C62.0582 381.058 62.3864 381.449 62.6222 381.955C62.858 382.46 62.9759 383.057 62.9759 383.744C62.9759 384.438 62.858 385.038 62.6222 385.547C62.3864 386.053 62.0597 386.445 61.642 386.723C61.2244 386.999 60.7429 387.136 60.1974 387.136C59.777 387.136 59.4403 387.067 59.1875 386.928C58.9347 386.786 58.7401 386.625 58.6037 386.446C58.4673 386.264 58.3622 386.114 58.2884 385.994H58.169V387H57.1974ZM58.1861 383.727C58.1861 384.222 58.2585 384.658 58.4034 385.036C58.5483 385.411 58.7599 385.705 59.0384 385.918C59.3168 386.128 59.6577 386.233 60.0611 386.233C60.4815 386.233 60.8324 386.122 61.1136 385.901C61.3977 385.676 61.6108 385.375 61.7528 384.997C61.8977 384.616 61.9702 384.193 61.9702 383.727C61.9702 383.267 61.8991 382.852 61.7571 382.483C61.6179 382.111 61.4063 381.817 61.1222 381.601C60.8409 381.382 60.4872 381.273 60.0611 381.273C59.652 381.273 59.3082 381.376 59.0298 381.584C58.7514 381.788 58.5412 382.075 58.3991 382.445C58.2571 382.811 58.1861 383.239 58.1861 383.727ZM67.2585 387.136C66.6278 387.136 66.0838 386.997 65.6264 386.719C65.1719 386.438 64.821 386.045 64.5739 385.543C64.3295 385.037 64.2074 384.449 64.2074 383.778C64.2074 383.108 64.3295 382.517 64.5739 382.006C64.821 381.491 65.1648 381.091 65.6051 380.804C66.0483 380.514 66.5653 380.369 67.1562 380.369C67.4972 380.369 67.8338 380.426 68.1662 380.54C68.4986 380.653 68.8011 380.838 69.0739 381.094C69.3466 381.347 69.5639 381.682 69.7259 382.099C69.8878 382.517 69.9688 383.031 69.9688 383.642V384.068H64.9233V383.199H68.946C68.946 382.83 68.8722 382.5 68.7244 382.21C68.5795 381.92 68.3722 381.692 68.1023 381.524C67.8352 381.357 67.5199 381.273 67.1562 381.273C66.7557 381.273 66.4091 381.372 66.1165 381.571C65.8267 381.767 65.6037 382.023 65.4474 382.338C65.2912 382.653 65.2131 382.991 65.2131 383.352V383.932C65.2131 384.426 65.2983 384.845 65.4688 385.189C65.642 385.53 65.8821 385.79 66.1889 385.969C66.4957 386.145 66.8523 386.233 67.2585 386.233C67.5227 386.233 67.7614 386.196 67.9744 386.122C68.1903 386.045 68.3764 385.932 68.5327 385.781C68.6889 385.628 68.8097 385.437 68.8949 385.21L69.8665 385.483C69.7642 385.812 69.5923 386.102 69.3509 386.352C69.1094 386.599 68.8111 386.793 68.456 386.932C68.1009 387.068 67.7017 387.136 67.2585 387.136ZM72.2315 387.068C72.0213 387.068 71.8409 386.993 71.6903 386.842C71.5398 386.692 71.4645 386.511 71.4645 386.301C71.4645 386.091 71.5398 385.911 71.6903 385.76C71.8409 385.609 72.0213 385.534 72.2315 385.534C72.4418 385.534 72.6222 385.609 72.7727 385.76C72.9233 385.911 72.9986 386.091 72.9986 386.301C72.9986 386.44 72.9631 386.568 72.892 386.685C72.8239 386.801 72.7315 386.895 72.6151 386.966C72.5014 387.034 72.3736 387.068 72.2315 387.068ZM74.9396 378.273H76.201L79.1669 385.517H79.2692L82.2351 378.273H83.4964V387H82.5078V380.369H82.4226L79.6953 387H78.7408L76.0135 380.369H75.9283V387H74.9396V378.273ZM88.1381 387.136C87.5472 387.136 87.0288 386.996 86.5827 386.714C86.1396 386.433 85.793 386.04 85.543 385.534C85.2958 385.028 85.1722 384.437 85.1722 383.761C85.1722 383.08 85.2958 382.484 85.543 381.976C85.793 381.467 86.1396 381.072 86.5827 380.791C87.0288 380.51 87.5472 380.369 88.1381 380.369C88.729 380.369 89.2461 380.51 89.6893 380.791C90.1353 381.072 90.4819 381.467 90.729 381.976C90.979 382.484 91.104 383.08 91.104 383.761C91.104 384.437 90.979 385.028 90.729 385.534C90.4819 386.04 90.1353 386.433 89.6893 386.714C89.2461 386.996 88.729 387.136 88.1381 387.136ZM88.1381 386.233C88.587 386.233 88.9563 386.118 89.2461 385.888C89.5359 385.658 89.7504 385.355 89.8896 384.98C90.0288 384.605 90.0984 384.199 90.0984 383.761C90.0984 383.324 90.0288 382.916 89.8896 382.538C89.7504 382.161 89.5359 381.855 89.2461 381.622C88.9563 381.389 88.587 381.273 88.1381 381.273C87.6893 381.273 87.32 381.389 87.0302 381.622C86.7404 381.855 86.5259 382.161 86.3867 382.538C86.2475 382.916 86.1779 383.324 86.1779 383.761C86.1779 384.199 86.2475 384.605 86.3867 384.98C86.5259 385.355 86.7404 385.658 87.0302 385.888C87.32 386.118 87.6893 386.233 88.1381 386.233ZM87.6779 379.568L88.7177 377.591H89.8938L88.5643 379.568H87.6779ZM92.6392 387V380.455H93.6108V381.443H93.679C93.7983 381.119 94.0142 380.857 94.3267 380.655C94.6392 380.453 94.9915 380.352 95.3835 380.352C95.4574 380.352 95.5497 380.354 95.6605 380.357C95.7713 380.359 95.8551 380.364 95.9119 380.369V381.392C95.8778 381.384 95.7997 381.371 95.6776 381.354C95.5582 381.334 95.4318 381.324 95.2983 381.324C94.9801 381.324 94.696 381.391 94.446 381.524C94.1989 381.655 94.0028 381.837 93.858 382.07C93.7159 382.3 93.6449 382.562 93.6449 382.858V387H92.6392ZM97.2404 387V378.273H98.2461V381.494H98.3313C98.4052 381.381 98.5075 381.236 98.6381 381.06C98.7717 380.881 98.962 380.722 99.2092 380.582C99.4592 380.44 99.7972 380.369 100.223 380.369C100.775 380.369 101.26 380.507 101.681 380.783C102.101 381.058 102.429 381.449 102.665 381.955C102.901 382.46 103.019 383.057 103.019 383.744C103.019 384.438 102.901 385.038 102.665 385.547C102.429 386.053 102.103 386.445 101.685 386.723C101.267 386.999 100.786 387.136 100.24 387.136C99.82 387.136 99.4833 387.067 99.2305 386.928C98.9776 386.786 98.783 386.625 98.6467 386.446C98.5103 386.264 98.4052 386.114 98.3313 385.994H98.212V387H97.2404ZM98.229 383.727C98.229 384.222 98.3015 384.658 98.4464 385.036C98.5913 385.411 98.8029 385.705 99.0813 385.918C99.3597 386.128 99.7006 386.233 100.104 386.233C100.525 386.233 100.875 386.122 101.157 385.901C101.441 385.676 101.654 385.375 101.796 384.997C101.941 384.616 102.013 384.193 102.013 383.727C102.013 383.267 101.942 382.852 101.8 382.483C101.661 382.111 101.449 381.817 101.165 381.601C100.884 381.382 100.53 381.273 100.104 381.273C99.695 381.273 99.3512 381.376 99.0728 381.584C98.7944 381.788 98.5842 382.075 98.4421 382.445C98.3001 382.811 98.229 383.239 98.229 383.727ZM104.557 387V380.455H105.563V387H104.557ZM105.069 379.364C104.873 379.364 104.703 379.297 104.561 379.163C104.422 379.03 104.353 378.869 104.353 378.682C104.353 378.494 104.422 378.334 104.561 378.2C104.703 378.067 104.873 378 105.069 378C105.265 378 105.432 378.067 105.571 378.2C105.713 378.334 105.784 378.494 105.784 378.682C105.784 378.869 105.713 379.03 105.571 379.163C105.432 379.297 105.265 379.364 105.069 379.364ZM109.876 387.136C109.331 387.136 108.849 386.999 108.432 386.723C108.014 386.445 107.688 386.053 107.452 385.547C107.216 385.038 107.098 384.438 107.098 383.744C107.098 383.057 107.216 382.46 107.452 381.955C107.688 381.449 108.016 381.058 108.436 380.783C108.857 380.507 109.342 380.369 109.893 380.369C110.32 380.369 110.656 380.44 110.903 380.582C111.153 380.722 111.344 380.881 111.474 381.06C111.608 381.236 111.712 381.381 111.786 381.494H111.871V378.273H112.876V387H111.905V385.994H111.786C111.712 386.114 111.607 386.264 111.47 386.446C111.334 386.625 111.139 386.786 110.886 386.928C110.634 387.067 110.297 387.136 109.876 387.136ZM110.013 386.233C110.416 386.233 110.757 386.128 111.036 385.918C111.314 385.705 111.526 385.411 111.67 385.036C111.815 384.658 111.888 384.222 111.888 383.727C111.888 383.239 111.817 382.811 111.675 382.445C111.533 382.075 111.322 381.788 111.044 381.584C110.766 381.376 110.422 381.273 110.013 381.273C109.587 381.273 109.232 381.382 108.947 381.601C108.666 381.817 108.455 382.111 108.312 382.483C108.173 382.852 108.104 383.267 108.104 383.727C108.104 384.193 108.175 384.616 108.317 384.997C108.462 385.375 108.675 385.676 108.956 385.901C109.24 386.122 109.592 386.233 110.013 386.233ZM116.784 387.153C116.369 387.153 115.993 387.075 115.655 386.919C115.317 386.76 115.048 386.531 114.849 386.233C114.651 385.932 114.551 385.568 114.551 385.142C114.551 384.767 114.625 384.463 114.773 384.23C114.92 383.994 115.118 383.81 115.365 383.676C115.612 383.543 115.885 383.443 116.183 383.378C116.484 383.31 116.787 383.256 117.091 383.216C117.489 383.165 117.811 383.126 118.058 383.101C118.308 383.072 118.49 383.026 118.604 382.96C118.72 382.895 118.778 382.781 118.778 382.619V382.585C118.778 382.165 118.663 381.838 118.433 381.605C118.206 381.372 117.861 381.256 117.398 381.256C116.918 381.256 116.541 381.361 116.268 381.571C115.996 381.781 115.804 382.006 115.693 382.244L114.739 381.903C114.909 381.506 115.136 381.196 115.42 380.974C115.707 380.75 116.02 380.594 116.358 380.506C116.699 380.415 117.034 380.369 117.364 380.369C117.574 380.369 117.815 380.395 118.088 380.446C118.364 380.494 118.629 380.595 118.885 380.749C119.143 380.902 119.358 381.134 119.528 381.443C119.699 381.753 119.784 382.168 119.784 382.688V387H118.778V386.114H118.727C118.659 386.256 118.545 386.408 118.386 386.57C118.227 386.732 118.016 386.869 117.751 386.983C117.487 387.097 117.165 387.153 116.784 387.153ZM116.938 386.25C117.335 386.25 117.67 386.172 117.943 386.016C118.219 385.859 118.426 385.658 118.565 385.411C118.707 385.163 118.778 384.903 118.778 384.631V383.71C118.736 383.761 118.642 383.808 118.497 383.851C118.355 383.891 118.19 383.926 118.003 383.957C117.818 383.986 117.638 384.011 117.462 384.034C117.288 384.054 117.148 384.071 117.04 384.085C116.778 384.119 116.534 384.175 116.307 384.251C116.082 384.325 115.901 384.437 115.761 384.588C115.625 384.736 115.557 384.937 115.557 385.193C115.557 385.543 115.686 385.807 115.945 385.986C116.206 386.162 116.537 386.25 116.938 386.25Z" fill="black"/>
</svg>
