<svg width="147" height="399" viewBox="0 0 147 399" fill="none" xmlns="http://www.w3.org/2000/svg">
<path d="M76 3L78 2L79.5 1H84H85L88 5L93 11.5L96 16V19.5V23L97 28L99 33V37.5L98 39.5L95.5 44L94 46.5L93 49L94.5 52L97.5 52.5L98.5 53L94.5 55.5L91.5 56.5L88 57L86 57.5L87 60.5L90 65.5L94.5 68L101.5 70L114.5 74.5L119 76.5L122.5 80.5L125 84L127.5 90.5L130.5 102.5L131.5 111V122V133V137L135.5 147.5L137 155L138 161V167.5L139 177V182L140 188.5L142 194.5L144.5 199.5L146.5 206V210V212L144.5 216L140 224L138 225L137 224V222.5L139 220V216V210L138 206L135.5 208.5L134 213.5L131.5 217.5L130.5 216L131.5 212L130.5 204L132.5 199.5V196.5L130.5 192L125 180L119 167.5L114.5 157L110.5 147.5L109 140L108 135.5H106V141.5L108 147.5L112.5 158L114.5 165L115.5 172V180L117.5 186L119 194.5V203V213.5L117.5 225V228V231.5L115.5 242.5L113 259.5L109.5 282L108 297.5L104.5 313.5L99 337V341L100.5 346L105.5 350L110.5 354.5L115.5 358L113 360.5H105.5H92.5L84 353.5L85.5 350V344.5V341L86.5 337L84 329L79.5 312L76 297.5V280.5L77 274L79.5 271L76 261L74.5 257.5V242.5V228H73V232.5L72 240V246.5V255.5L71 261L70 265.5L69 268V270V274L70 277.5L71 287L70 299.5L67 315L62.5 334L61 342V348L62.5 352.5L56 359.5L51 360.5H34.5L30.5 358L35.5 354.5L48 342V338L46.5 327L40 304V295.5L38.5 285.5L35.5 270L34.5 261L33 250L30.5 231.5L29 224L28 220V194.5L29 186L30.5 180L32 178.5L31.5 168L34.5 158L36.5 152L39.5 146.5L40.5 140V134.5V133H38V139L36.5 146.5L34.5 152L32 160L28 166.5L25.5 172L21.5 181L19.5 187L17.5 192L16.5 199.5L17.5 206L16.5 210L17.5 216V217.5H15L12 207.5H10V213.5V217.5L12 222.5V225H8.5L1 208.5V204L4 199.5L5.5 195.5L8.5 188.5V185L10 183V178.5V153V149L11 146.5L13.5 142.5L15 139V108L24 80.5L32 74.5L54 68L60.5 62.5L62.5 57L51 53.5L56 50.5L56.5 47L49 40V36L51 29.5L54 27L53 19.5L54.5 15.5L58 11.5L61.5 5L65.5 1H69.5L74 2L75.5 3.5" stroke="black"/>
<rect x="1" y="365" width="146" height="34" fill="#D9D9D9"/>
<path d="M63.4205 382.636C63.4205 383.557 63.2543 384.352 62.9219 385.023C62.5895 385.693 62.1335 386.21 61.554 386.574C60.9744 386.938 60.3125 387.119 59.5682 387.119C58.8239 387.119 58.1619 386.938 57.5824 386.574C57.0028 386.21 56.5469 385.693 56.2145 385.023C55.8821 384.352 55.7159 383.557 55.7159 382.636C55.7159 381.716 55.8821 380.92 56.2145 380.25C56.5469 379.58 57.0028 379.062 57.5824 378.699C58.1619 378.335 58.8239 378.153 59.5682 378.153C60.3125 378.153 60.9744 378.335 61.554 378.699C62.1335 379.062 62.5895 379.58 62.9219 380.25C63.2543 380.92 63.4205 381.716 63.4205 382.636ZM62.3977 382.636C62.3977 381.881 62.2713 381.243 62.0185 380.723C61.7685 380.203 61.429 379.81 61 379.543C60.5739 379.276 60.0966 379.142 59.5682 379.142C59.0398 379.142 58.5611 379.276 58.1321 379.543C57.706 379.81 57.3665 380.203 57.1136 380.723C56.8636 381.243 56.7386 381.881 56.7386 382.636C56.7386 383.392 56.8636 384.03 57.1136 384.55C57.3665 385.07 57.706 385.463 58.1321 385.73C58.5611 385.997 59.0398 386.131 59.5682 386.131C60.0966 386.131 60.5739 385.997 61 385.73C61.429 385.463 61.7685 385.07 62.0185 384.55C62.2713 384.03 62.3977 383.392 62.3977 382.636ZM65.1974 387V378.273H66.2031V381.494H66.2884C66.3622 381.381 66.4645 381.236 66.5952 381.06C66.7287 380.881 66.919 380.722 67.1662 380.582C67.4162 380.44 67.7543 380.369 68.1804 380.369C68.7315 380.369 69.2173 380.507 69.6378 380.783C70.0582 381.058 70.3864 381.449 70.6222 381.955C70.858 382.46 70.9759 383.057 70.9759 383.744C70.9759 384.438 70.858 385.038 70.6222 385.547C70.3864 386.053 70.0597 386.445 69.642 386.723C69.2244 386.999 68.7429 387.136 68.1974 387.136C67.777 387.136 67.4403 387.067 67.1875 386.928C66.9347 386.786 66.7401 386.625 66.6037 386.446C66.4673 386.264 66.3622 386.114 66.2884 385.994H66.169V387H65.1974ZM66.1861 383.727C66.1861 384.222 66.2585 384.658 66.4034 385.036C66.5483 385.411 66.7599 385.705 67.0384 385.918C67.3168 386.128 67.6577 386.233 68.0611 386.233C68.4815 386.233 68.8324 386.122 69.1136 385.901C69.3977 385.676 69.6108 385.375 69.7528 384.997C69.8977 384.616 69.9702 384.193 69.9702 383.727C69.9702 383.267 69.8991 382.852 69.7571 382.483C69.6179 382.111 69.4063 381.817 69.1222 381.601C68.8409 381.382 68.4872 381.273 68.0611 381.273C67.652 381.273 67.3082 381.376 67.0298 381.584C66.7514 381.788 66.5412 382.075 66.3991 382.445C66.2571 382.811 66.1861 383.239 66.1861 383.727ZM75.2585 387.136C74.6278 387.136 74.0838 386.997 73.6264 386.719C73.1719 386.438 72.821 386.045 72.5739 385.543C72.3295 385.037 72.2074 384.449 72.2074 383.778C72.2074 383.108 72.3295 382.517 72.5739 382.006C72.821 381.491 73.1648 381.091 73.6051 380.804C74.0483 380.514 74.5653 380.369 75.1562 380.369C75.4972 380.369 75.8338 380.426 76.1662 380.54C76.4986 380.653 76.8011 380.838 77.0739 381.094C77.3466 381.347 77.5639 381.682 77.7259 382.099C77.8878 382.517 77.9688 383.031 77.9688 383.642V384.068H72.9233V383.199H76.946C76.946 382.83 76.8722 382.5 76.7244 382.21C76.5795 381.92 76.3722 381.692 76.1023 381.524C75.8352 381.357 75.5199 381.273 75.1562 381.273C74.7557 381.273 74.4091 381.372 74.1165 381.571C73.8267 381.767 73.6037 382.023 73.4474 382.338C73.2912 382.653 73.2131 382.991 73.2131 383.352V383.932C73.2131 384.426 73.2983 384.845 73.4688 385.189C73.642 385.53 73.8821 385.79 74.1889 385.969C74.4957 386.145 74.8523 386.233 75.2585 386.233C75.5227 386.233 75.7614 386.196 75.9744 386.122C76.1903 386.045 76.3764 385.932 76.5327 385.781C76.6889 385.628 76.8097 385.437 76.8949 385.21L77.8665 385.483C77.7642 385.812 77.5923 386.102 77.3509 386.352C77.1094 386.599 76.8111 386.793 76.456 386.932C76.1009 387.068 75.7017 387.136 75.2585 387.136ZM84.1349 381.92L83.2315 382.176C83.1747 382.026 83.0909 381.879 82.9801 381.737C82.8722 381.592 82.7244 381.473 82.5369 381.379C82.3494 381.286 82.1094 381.239 81.8168 381.239C81.4162 381.239 81.0824 381.331 80.8153 381.516C80.5511 381.697 80.419 381.929 80.419 382.21C80.419 382.46 80.5099 382.658 80.6918 382.803C80.8736 382.947 81.1577 383.068 81.544 383.165L82.5156 383.403C83.1009 383.545 83.5369 383.763 83.8239 384.055C84.1108 384.345 84.2543 384.719 84.2543 385.176C84.2543 385.551 84.1463 385.886 83.9304 386.182C83.7173 386.477 83.419 386.71 83.0355 386.881C82.652 387.051 82.206 387.136 81.6974 387.136C81.0298 387.136 80.4773 386.991 80.0398 386.702C79.6023 386.412 79.3253 385.989 79.2088 385.432L80.1634 385.193C80.2543 385.545 80.4261 385.81 80.679 385.986C80.9347 386.162 81.2685 386.25 81.6804 386.25C82.1491 386.25 82.5213 386.151 82.7969 385.952C83.0753 385.75 83.2145 385.509 83.2145 385.227C83.2145 385 83.1349 384.81 82.9759 384.656C82.8168 384.5 82.5724 384.384 82.2429 384.307L81.152 384.051C80.5526 383.909 80.1122 383.689 79.831 383.391C79.5526 383.089 79.4134 382.713 79.4134 382.261C79.4134 381.892 79.517 381.565 79.7244 381.281C79.9347 380.997 80.2202 380.774 80.581 380.612C80.9446 380.45 81.3565 380.369 81.8168 380.369C82.4645 380.369 82.973 380.511 83.3423 380.795C83.7145 381.08 83.9787 381.455 84.1349 381.92ZM88.4272 387.136C87.8363 387.136 87.3178 386.996 86.8718 386.714C86.4286 386.433 86.082 386.04 85.832 385.534C85.5849 385.028 85.4613 384.437 85.4613 383.761C85.4613 383.08 85.5849 382.484 85.832 381.976C86.082 381.467 86.4286 381.072 86.8718 380.791C87.3178 380.51 87.8363 380.369 88.4272 380.369C89.0181 380.369 89.5352 380.51 89.9783 380.791C90.4244 381.072 90.771 381.467 91.0181 381.976C91.2681 382.484 91.3931 383.08 91.3931 383.761C91.3931 384.437 91.2681 385.028 91.0181 385.534C90.771 386.04 90.4244 386.433 89.9783 386.714C89.5352 386.996 89.0181 387.136 88.4272 387.136ZM88.4272 386.233C88.8761 386.233 89.2454 386.118 89.5352 385.888C89.8249 385.658 90.0394 385.355 90.1786 384.98C90.3178 384.605 90.3874 384.199 90.3874 383.761C90.3874 383.324 90.3178 382.916 90.1786 382.538C90.0394 382.161 89.8249 381.855 89.5352 381.622C89.2454 381.389 88.8761 381.273 88.4272 381.273C87.9783 381.273 87.609 381.389 87.3192 381.622C87.0295 381.855 86.815 382.161 86.6758 382.538C86.5366 382.916 86.467 383.324 86.467 383.761C86.467 384.199 86.5366 384.605 86.6758 384.98C86.815 385.355 87.0295 385.658 87.3192 385.888C87.609 386.118 87.9783 386.233 88.4272 386.233Z" fill="black"/>
</svg>
