<svg width="146" height="399" viewBox="0 0 146 399" fill="none" xmlns="http://www.w3.org/2000/svg">
<path d="M42.5 72.5L34.5 77L25.5 85L21.5 97L19 115V133.5L18.5 140L15.5 145L13.5 152.5L11 167.5L10.5 175.5L11 183L9.5 189.5L7 197L3.5 203.5L1 207.5V212L8.5 227.5H11L8.5 221L7 215L8.5 208.5L11 209.5V217L15 221V218.5V205.5V195L19 188L25.5 175L29.5 168.5L32.5 160L35.5 150.5L38 142.5L41 133.5V126.5L42.5 119.5L44 129.5L42.5 140.5L41 150.5L38 158L39 168.5L35.5 177.5L32.5 188L31.5 203.5L32.5 219.5L37.5 250.5V264L39 274.5L41 290.5L45 320.5L48 334V342L39 354L31.5 359L34 362H53L55 361L61 356V353V341L62 332.5L65 318.5L67.5 303L69.5 292.5V288V277L68.5 268.5L69.5 262.5V250.5L71.5 240.5L72.5 222.5H74.5V237.5L78 254.5L77 261.5L78 270.5L77 278V290.5L78 300.5L86 338.5V342V347L85 351.5V356L95 362H111L113 361L114.5 359L112 356L105 351.5L99 343V340L100 329.5L101.5 320.5L104 307.5L106 295L109 278V268.5V256.5L111 244L113 230L114.5 219.5V193L111 177.5L109 168.5V163.5L107 154.5L104 144.5V132V124.5L105.5 119.5L107 122.5V133.5L110 150.5L130 189.5L133.5 198.5L132 201V205.5V215L131 218.5L133.5 219.5L135.5 218.5V215V211L138.5 208.5L140 211L138.5 222.5L135.5 226L137 227.5H138.5L143.5 219.5L145.5 213.5V209.5L144.5 203.5L140 195L138.5 188L137 179.5L135.5 168.5L134.5 157L131 146.5L128 138L127 133.5V123.5V115V105.5L125 97L123.5 90L119.5 82.5L113.5 77L104 72.5L93.5 69.5L87 66L85 62V58.5L90.5 57.5L95.5 56L97 53.5L93 51.5L93.5 48L95.5 44.5L98 39.5V37V31L95.5 26.5V22.5V16.5L85 2H82L79 3.5L77 4.5H74.5L73 3.5L68.5 1L65 3.5L60.5 6.5L59 11L52 18.5V20.5L53.5 24V29L51 31L49 35.5V39.5L55.5 47V50L54.5 52L52 54.5L59 58.5H63V62L60.5 65L52 69.5L42.5 72.5Z" stroke="black"/>
<rect x="1" y="366" width="145" height="33" fill="#D9D9D9"/>
<path d="M47.8295 380.455C47.7784 380.023 47.571 379.688 47.2074 379.449C46.8438 379.21 46.3977 379.091 45.8693 379.091C45.483 379.091 45.1449 379.153 44.8551 379.278C44.5682 379.403 44.3438 379.575 44.1818 379.794C44.0227 380.013 43.9432 380.261 43.9432 380.54C43.9432 380.773 43.9986 380.973 44.1094 381.141C44.223 381.305 44.3679 381.443 44.544 381.554C44.7202 381.662 44.9048 381.751 45.098 381.822C45.2912 381.891 45.4688 381.946 45.6307 381.989L46.517 382.227C46.7443 382.287 46.9972 382.369 47.2756 382.474C47.5568 382.58 47.8253 382.723 48.081 382.905C48.3395 383.084 48.5526 383.314 48.7202 383.595C48.8878 383.876 48.9716 384.222 48.9716 384.631C48.9716 385.102 48.848 385.528 48.6009 385.909C48.3565 386.29 47.9986 386.592 47.527 386.817C47.0582 387.041 46.4886 387.153 45.8182 387.153C45.1932 387.153 44.652 387.053 44.1946 386.851C43.7401 386.649 43.3821 386.368 43.1207 386.007C42.8622 385.646 42.7159 385.227 42.6818 384.75H43.7727C43.8011 385.08 43.9119 385.352 44.1051 385.568C44.3011 385.781 44.5483 385.94 44.8466 386.045C45.1477 386.148 45.4716 386.199 45.8182 386.199C46.2216 386.199 46.5838 386.134 46.9048 386.003C47.2259 385.869 47.4801 385.685 47.6676 385.449C47.8551 385.21 47.9489 384.932 47.9489 384.614C47.9489 384.324 47.8679 384.088 47.706 383.906C47.544 383.724 47.331 383.577 47.0668 383.463C46.8026 383.349 46.517 383.25 46.2102 383.165L45.1364 382.858C44.4545 382.662 43.9148 382.382 43.517 382.018C43.1193 381.655 42.9205 381.179 42.9205 380.591C42.9205 380.102 43.0526 379.676 43.3168 379.312C43.5838 378.946 43.9418 378.662 44.3906 378.46C44.8423 378.256 45.3466 378.153 45.9034 378.153C46.4659 378.153 46.9659 378.254 47.4034 378.456C47.8409 378.655 48.1875 378.928 48.4432 379.274C48.7017 379.621 48.8381 380.014 48.8523 380.455H47.8295ZM53.2319 387.136C52.641 387.136 52.1225 386.996 51.6765 386.714C51.2333 386.433 50.8867 386.04 50.6367 385.534C50.3896 385.028 50.266 384.437 50.266 383.761C50.266 383.08 50.3896 382.484 50.6367 381.976C50.8867 381.467 51.2333 381.072 51.6765 380.791C52.1225 380.51 52.641 380.369 53.2319 380.369C53.8228 380.369 54.3398 380.51 54.783 380.791C55.229 381.072 55.5756 381.467 55.8228 381.976C56.0728 382.484 56.1978 383.08 56.1978 383.761C56.1978 384.437 56.0728 385.028 55.8228 385.534C55.5756 386.04 55.229 386.433 54.783 386.714C54.3398 386.996 53.8228 387.136 53.2319 387.136ZM53.2319 386.233C53.6808 386.233 54.0501 386.118 54.3398 385.888C54.6296 385.658 54.8441 385.355 54.9833 384.98C55.1225 384.605 55.1921 384.199 55.1921 383.761C55.1921 383.324 55.1225 382.916 54.9833 382.538C54.8441 382.161 54.6296 381.855 54.3398 381.622C54.0501 381.389 53.6808 381.273 53.2319 381.273C52.783 381.273 52.4137 381.389 52.1239 381.622C51.8342 381.855 51.6197 382.161 51.4805 382.538C51.3413 382.916 51.2717 383.324 51.2717 383.761C51.2717 384.199 51.3413 384.605 51.4805 384.98C51.6197 385.355 51.8342 385.658 52.1239 385.888C52.4137 386.118 52.783 386.233 53.2319 386.233ZM57.8693 387V378.273H58.875V381.494H58.9602C59.0341 381.381 59.1364 381.236 59.267 381.06C59.4006 380.881 59.5909 380.722 59.8381 380.582C60.0881 380.44 60.4261 380.369 60.8523 380.369C61.4034 380.369 61.8892 380.507 62.3097 380.783C62.7301 381.058 63.0582 381.449 63.294 381.955C63.5298 382.46 63.6477 383.057 63.6477 383.744C63.6477 384.438 63.5298 385.038 63.294 385.547C63.0582 386.053 62.7315 386.445 62.3139 386.723C61.8963 386.999 61.4148 387.136 60.8693 387.136C60.4489 387.136 60.1122 387.067 59.8594 386.928C59.6065 386.786 59.4119 386.625 59.2756 386.446C59.1392 386.264 59.0341 386.114 58.9602 385.994H58.8409V387H57.8693ZM58.858 383.727C58.858 384.222 58.9304 384.658 59.0753 385.036C59.2202 385.411 59.4318 385.705 59.7102 385.918C59.9886 386.128 60.3295 386.233 60.733 386.233C61.1534 386.233 61.5043 386.122 61.7855 385.901C62.0696 385.676 62.2827 385.375 62.4247 384.997C62.5696 384.616 62.642 384.193 62.642 383.727C62.642 383.267 62.571 382.852 62.429 382.483C62.2898 382.111 62.0781 381.817 61.794 381.601C61.5128 381.382 61.1591 381.273 60.733 381.273C60.3239 381.273 59.9801 381.376 59.7017 381.584C59.4233 381.788 59.2131 382.075 59.071 382.445C58.929 382.811 58.858 383.239 58.858 383.727ZM65.1861 387V380.455H66.1577V381.443H66.2259C66.3452 381.119 66.5611 380.857 66.8736 380.655C67.1861 380.453 67.5384 380.352 67.9304 380.352C68.0043 380.352 68.0966 380.354 68.2074 380.357C68.3182 380.359 68.402 380.364 68.4588 380.369V381.392C68.4247 381.384 68.3466 381.371 68.2244 381.354C68.1051 381.334 67.9787 381.324 67.8452 381.324C67.527 381.324 67.2429 381.391 66.9929 381.524C66.7457 381.655 66.5497 381.837 66.4048 382.07C66.2628 382.3 66.1918 382.562 66.1918 382.858V387H65.1861ZM72.196 387.136C71.5653 387.136 71.0213 386.997 70.5639 386.719C70.1094 386.438 69.7585 386.045 69.5114 385.543C69.267 385.037 69.1449 384.449 69.1449 383.778C69.1449 383.108 69.267 382.517 69.5114 382.006C69.7585 381.491 70.1023 381.091 70.5426 380.804C70.9858 380.514 71.5028 380.369 72.0938 380.369C72.4347 380.369 72.7713 380.426 73.1037 380.54C73.4361 380.653 73.7386 380.838 74.0114 381.094C74.2841 381.347 74.5014 381.682 74.6634 382.099C74.8253 382.517 74.9062 383.031 74.9062 383.642V384.068H69.8608V383.199H73.8835C73.8835 382.83 73.8097 382.5 73.6619 382.21C73.517 381.92 73.3097 381.692 73.0398 381.524C72.7727 381.357 72.4574 381.273 72.0938 381.273C71.6932 381.273 71.3466 381.372 71.054 381.571C70.7642 381.767 70.5412 382.023 70.3849 382.338C70.2287 382.653 70.1506 382.991 70.1506 383.352V383.932C70.1506 384.426 70.2358 384.845 70.4062 385.189C70.5795 385.53 70.8196 385.79 71.1264 385.969C71.4332 386.145 71.7898 386.233 72.196 386.233C72.4602 386.233 72.6989 386.196 72.9119 386.122C73.1278 386.045 73.3139 385.932 73.4702 385.781C73.6264 385.628 73.7472 385.437 73.8324 385.21L74.804 385.483C74.7017 385.812 74.5298 386.102 74.2884 386.352C74.0469 386.599 73.7486 386.793 73.3935 386.932C73.0384 387.068 72.6392 387.136 72.196 387.136ZM76.4361 389.455V380.455H77.4077V381.494H77.527C77.6009 381.381 77.7031 381.236 77.8338 381.06C77.9673 380.881 78.1577 380.722 78.4048 380.582C78.6548 380.44 78.9929 380.369 79.419 380.369C79.9702 380.369 80.456 380.507 80.8764 380.783C81.2969 381.058 81.625 381.449 81.8608 381.955C82.0966 382.46 82.2145 383.057 82.2145 383.744C82.2145 384.438 82.0966 385.038 81.8608 385.547C81.625 386.053 81.2983 386.445 80.8807 386.723C80.4631 386.999 79.9815 387.136 79.4361 387.136C79.0156 387.136 78.679 387.067 78.4261 386.928C78.1733 386.786 77.9787 386.625 77.8423 386.446C77.706 386.264 77.6009 386.114 77.527 385.994H77.4418V389.455H76.4361ZM77.4247 383.727C77.4247 384.222 77.4972 384.658 77.642 385.036C77.7869 385.411 77.9986 385.705 78.277 385.918C78.5554 386.128 78.8963 386.233 79.2997 386.233C79.7202 386.233 80.071 386.122 80.3523 385.901C80.6364 385.676 80.8494 385.375 80.9915 384.997C81.1364 384.616 81.2088 384.193 81.2088 383.727C81.2088 383.267 81.1378 382.852 80.9957 382.483C80.8565 382.111 80.6449 381.817 80.3608 381.601C80.0795 381.382 79.7259 381.273 79.2997 381.273C78.8906 381.273 78.5469 381.376 78.2685 381.584C77.9901 381.788 77.7798 382.075 77.6378 382.445C77.4957 382.811 77.4247 383.239 77.4247 383.727ZM86.4929 387.136C85.8622 387.136 85.3182 386.997 84.8608 386.719C84.4062 386.438 84.0554 386.045 83.8082 385.543C83.5639 385.037 83.4418 384.449 83.4418 383.778C83.4418 383.108 83.5639 382.517 83.8082 382.006C84.0554 381.491 84.3991 381.091 84.8395 380.804C85.2827 380.514 85.7997 380.369 86.3906 380.369C86.7315 380.369 87.0682 380.426 87.4006 380.54C87.733 380.653 88.0355 380.838 88.3082 381.094C88.581 381.347 88.7983 381.682 88.9602 382.099C89.1222 382.517 89.2031 383.031 89.2031 383.642V384.068H84.1577V383.199H88.1804C88.1804 382.83 88.1065 382.5 87.9588 382.21C87.8139 381.92 87.6065 381.692 87.3366 381.524C87.0696 381.357 86.7543 381.273 86.3906 381.273C85.9901 381.273 85.6435 381.372 85.3509 381.571C85.0611 381.767 84.8381 382.023 84.6818 382.338C84.5256 382.653 84.4474 382.991 84.4474 383.352V383.932C84.4474 384.426 84.5327 384.845 84.7031 385.189C84.8764 385.53 85.1165 385.79 85.4233 385.969C85.7301 386.145 86.0866 386.233 86.4929 386.233C86.7571 386.233 86.9957 386.196 87.2088 386.122C87.4247 386.045 87.6108 385.932 87.767 385.781C87.9233 385.628 88.044 385.437 88.1293 385.21L89.1009 385.483C88.9986 385.812 88.8267 386.102 88.5852 386.352C88.3438 386.599 88.0455 386.793 87.6903 386.932C87.3352 387.068 86.9361 387.136 86.4929 387.136ZM95.3693 381.92L94.4659 382.176C94.4091 382.026 94.3253 381.879 94.2145 381.737C94.1065 381.592 93.9588 381.473 93.7713 381.379C93.5838 381.286 93.3438 381.239 93.0511 381.239C92.6506 381.239 92.3168 381.331 92.0497 381.516C91.7855 381.697 91.6534 381.929 91.6534 382.21C91.6534 382.46 91.7443 382.658 91.9261 382.803C92.108 382.947 92.392 383.068 92.7784 383.165L93.75 383.403C94.3352 383.545 94.7713 383.763 95.0582 384.055C95.3452 384.345 95.4886 384.719 95.4886 385.176C95.4886 385.551 95.3807 385.886 95.1648 386.182C94.9517 386.477 94.6534 386.71 94.2699 386.881C93.8864 387.051 93.4403 387.136 92.9318 387.136C92.2642 387.136 91.7116 386.991 91.2741 386.702C90.8366 386.412 90.5597 385.989 90.4432 385.432L91.3977 385.193C91.4886 385.545 91.6605 385.81 91.9134 385.986C92.169 386.162 92.5028 386.25 92.9148 386.25C93.3835 386.25 93.7557 386.151 94.0312 385.952C94.3097 385.75 94.4489 385.509 94.4489 385.227C94.4489 385 94.3693 384.81 94.2102 384.656C94.0511 384.5 93.8068 384.384 93.4773 384.307L92.3864 384.051C91.7869 383.909 91.3466 383.689 91.0653 383.391C90.7869 383.089 90.6477 382.713 90.6477 382.261C90.6477 381.892 90.7514 381.565 90.9588 381.281C91.169 380.997 91.4545 380.774 91.8153 380.612C92.179 380.45 92.5909 380.369 93.0511 380.369C93.6989 380.369 94.2074 380.511 94.5767 380.795C94.9489 381.08 95.2131 381.455 95.3693 381.92ZM99.6616 387.136C99.0707 387.136 98.5522 386.996 98.1062 386.714C97.663 386.433 97.3164 386.04 97.0664 385.534C96.8192 385.028 96.6957 384.437 96.6957 383.761C96.6957 383.08 96.8192 382.484 97.0664 381.976C97.3164 381.467 97.663 381.072 98.1062 380.791C98.5522 380.51 99.0707 380.369 99.6616 380.369C100.252 380.369 100.77 380.51 101.213 380.791C101.659 381.072 102.005 381.467 102.252 381.976C102.502 382.484 102.627 383.08 102.627 383.761C102.627 384.437 102.502 385.028 102.252 385.534C102.005 386.04 101.659 386.433 101.213 386.714C100.77 386.996 100.252 387.136 99.6616 387.136ZM99.6616 386.233C100.11 386.233 100.48 386.118 100.77 385.888C101.059 385.658 101.274 385.355 101.413 384.98C101.552 384.605 101.622 384.199 101.622 383.761C101.622 383.324 101.552 382.916 101.413 382.538C101.274 382.161 101.059 381.855 100.77 381.622C100.48 381.389 100.11 381.273 99.6616 381.273C99.2127 381.273 98.8434 381.389 98.5536 381.622C98.2638 381.855 98.0494 382.161 97.9102 382.538C97.771 382.916 97.7013 383.324 97.7013 383.761C97.7013 384.199 97.771 384.605 97.9102 384.98C98.0494 385.355 98.2638 385.658 98.5536 385.888C98.8434 386.118 99.2127 386.233 99.6616 386.233Z" fill="black"/>
</svg>
